<?xml version="1.0" standalone="no"?><!DOCTYPE svg PUBLIC "-//W3C//DTD SVG 1.1//EN" "http://www.w3.org/Graphics/SVG/1.1/DTD/svg11.dtd"><svg t="1783929061998" class="icon" viewBox="0 0 1024 1024" version="1.1" xmlns="http://www.w3.org/2000/svg" p-id="20671" xmlns:xlink="http://www.w3.org/1999/xlink" width="200" height="200"><path d="M173.42971 148.277795l830.324935 291.915103-17.105273 48.654619L156.325582 196.932413zM32.154476 550.131958l830.326081 291.915104-17.105273 48.654618-830.324935-291.915103z" fill="#ffba00" p-id="20672"></path><path d="M342.151315 994.845004A511.977743 511.977743 0 0 1 480.48341 1.020013a511.968574 511.968574 0 0 1 63.034509 1021.995686 508.677027 508.677027 0 0 1-201.366604-28.170695zM664.681706 77.807506C425.26518-6.383677 161.975767 119.903097 77.784584 359.319623s42.08413 502.683018 281.557961 586.874201 502.648636-42.061209 586.793975-281.512118-42.038287-502.70594-281.454814-586.8742z" fill="#ffba00" p-id="20673"></path><path d="M315.275692 498.981173c23.391533 8.228869 29.099022 3.598697 44.078314-28.124851 5.524115 6.784805 16.182678 15.644019 23.574906 20.022052-20.228347 40.846362-34.611676 49.820184-75.939392 35.287864l-75.160057-26.42865c-43.826175-15.414803-54.186756-28.755197-42.129973-63.03451l37.213282-105.806288 27.930018 9.821922-10.853397 30.875449 103.078614 36.284956 17.007856-48.36466-140.097061-49.281525 9.420794-26.795397 168.244835 59.114909-39.528368 112.39626-28.159234-9.902149 3.747688-10.670023-103.078614-36.250573-17.007856 48.36466c-4.973996 14.108269-1.53575 17.546515 23.402994 26.382807zM436.049812 500.127255l-26.566181-9.340568 40.238939-114.436286 26.520337 9.340568z m67.458385-135.237674l27.024613 9.50102-31.551637 89.646533c-16.366051 46.542389-37.270586 90.735311-87.640889 108.476659-2.922509-7.655828-9.558324-20.709701-14.899066-27.196525 44.238765-14.807379 61.659211-51.287169 75.549725-90.792615z m144.647007 68.982675l-68.111652 193.687855-27.930018-9.833383 5.59288-15.896158-87.423133-30.737918 9.397872-26.829779 87.411673 30.737918 17.890339-50.863118-75.836244-26.669328 9.501019-26.967309 75.836245 26.669328 16.366051-46.542389-82.197-28.904188 9.340568-26.56618zM699.843502 590.851105c-0.171912-8.228869-1.948339-20.629476-3.885218-32.491424l-34.886736 99.227778-25.431559-8.93944 31.299499-89.004726c-13.225786 17.294377-26.875622 32.904014-39.814888 42.129973 0.217756-8.595615-1.936879-21.351507-3.438246-29.282394 19.024961-13.466463 41.843453-40.651528 57.17803-65.326673l-24.973126-8.778988 8.778988-24.973127 29.007335 10.108443 16.446276-46.771605 25.431559 8.939439-16.446276 46.771606 25.660775 9.019665-8.778988 24.973127-25.660775-9.019666-2.635989 7.495376c3.862296 10.796092 12.687128 42.989535 14.624006 50.553677z m104.29346-26.829779l47.906227 16.847405-44.021009 125.324065-26.56618-9.340568 3.35802-9.535402-100.362399-35.322247 9.099891-25.889992 100.362399 35.287864 7.266159-20.629476-91.961618-32.319511 8.458085-24.067722 91.961619 32.342433 6.876491-19.483393-95.124804-33.454133 9.019665-25.660776 47.906227 16.847405 29.144865-82.90757 25.889992 9.099891z m-53.40742-29.50015c1.547211-15.277273 1.146082-40.170173-0.171913-59.000301l24.59492-0.28652c1.742045 18.979118 2.567224 42.748858 1.787888 58.037591z m127.409934-14.66985c-14.509398 16.583806-31.012978 34.508528-43.298978 45.499455L815.815537 551.265433c12.217234-11.518124 28.65205-31.505794 38.760493-47.092508zM367.972542 191.750976a357.726569 357.726569 0 0 1 259.232284-8.137182c90.231034 31.723549 157.024692 90.013279 197.447003 168.886641-268.653077-94.482999-233.388135-82.231382-456.679287-160.749459zM652.602002 851.50453a359.033103 359.033103 0 0 1-462.501384-163.580281c231.439795 81.383282 205.91655 73.349247 462.501384 163.580281zM302.790275 153.060395l33.671889 0.673896-0.673896 33.671889-33.671889-0.673897zM872.097331 355.568497l33.671889 0.673896-0.67275 33.671889-33.671889-0.673897zM118.449865 671.325544l33.671889 0.673896-0.673897 33.671888-33.671888-0.673896zM692.161314 867.719298l33.667304 0.552412-0.552411 33.667304-33.667304-0.552411zM100.179026 485.159425l2.269242 60.937179L834.806116 743.497764 100.179026 485.159425zM828.961098 801.581199l-403.799065-141.999557 403.375014 106.917988 0.424051 35.081569z" fill="#ffba00" p-id="20674"></path></svg>