<?xml version="1.0" standalone="no"?><!DOCTYPE svg PUBLIC "-//W3C//DTD SVG 1.1//EN" "http://www.w3.org/Graphics/SVG/1.1/DTD/svg11.dtd"><svg t="1783929149568" class="icon" viewBox="0 0 1024 1024" version="1.1" xmlns="http://www.w3.org/2000/svg" p-id="5084" xmlns:xlink="http://www.w3.org/1999/xlink" width="200" height="200"><path d="M723.072 768.256c64.512 0 117.034667-51.626667 117.034667-114.986667 0-63.402667-52.522667-114.944-117.034667-114.944-64.597333 0-117.077333 51.541333-117.077333 114.944 0.085333 63.488 52.48 114.901333 117.077333 114.986667z m267.136 82.389333l-66.176 65.024-89.088-87.466666a211.626667 211.626667 0 0 1-111.872 32c-116.224 0-210.730667-92.885333-210.730667-206.933334 0.128-114.218667 94.378667-206.805333 210.730667-206.933333 116.181333 0 210.688 92.8 210.688 206.933333a202.666667 202.666667 0 0 1-32.597333 109.909334l89.045333 87.466666zM46.208 43.008h819.2c25.173333 0 45.525333 20.053333 45.525333 44.714667v312.874666h-91.008V132.394667H91.733333V579.413333h318.592v178.773334H46.208c-25.130667 0-45.482667-20.010667-45.482667-44.714667V87.722667c0-24.704 20.352-44.714667 45.482667-44.714667z m136.533333 849.28v-89.386667h227.584v89.386667H182.741333z" fill="#23B899" p-id="5085"></path></svg>