<?xml version="1.0" standalone="no"?><!DOCTYPE svg PUBLIC "-//W3C//DTD SVG 1.1//EN" "http://www.w3.org/Graphics/SVG/1.1/DTD/svg11.dtd"><svg t="1783929181279" class="icon" viewBox="0 0 1024 1024" version="1.1" xmlns="http://www.w3.org/2000/svg" p-id="6968" xmlns:xlink="http://www.w3.org/1999/xlink" width="200" height="200"><path d="M0 0m409.6 0l204.8 0q409.6 0 409.6 409.6l0 204.8q0 409.6-409.6 409.6l-204.8 0q-409.6 0-409.6-409.6l0-204.8q0-409.6 409.6-409.6Z" fill="#FA7301" opacity=".2" p-id="6969"></path><path d="M635.76064 500.39808a158.48448 158.48448 0 0 1 76.032 17.3056 122.7264 122.7264 0 0 1 50.91328 50.91328 158.63808 158.63808 0 0 1 17.3056 76.032v3.29728a158.49472 158.49472 0 0 1-17.3056 76.032 122.7264 122.7264 0 0 1-50.91328 50.91328 158.63808 158.63808 0 0 1-76.032 17.3056h-3.29728a158.48448 158.48448 0 0 1-76.032-17.3056 122.7264 122.7264 0 0 1-50.91328-50.91328 158.63808 158.63808 0 0 1-17.3056-76.032v-3.29728a158.49472 158.49472 0 0 1 17.3056-76.032 122.7264 122.7264 0 0 1 50.91328-50.91328 158.63808 158.63808 0 0 1 76.032-17.3056z m-120.43264-266.43456c59.136 0 90.9312 6.37952 122.63424 23.3472a163.70688 163.70688 0 0 1 67.96288 67.95264 176.68096 176.68096 0 0 1 19.85536 62.1568c1.31072 9.216 2.23232 19.37408 2.79552 30.72 0.256 4.7616 0.41984 9.74848 0.53248 14.97088a25.38496 25.38496 0 1 1-50.74944 1.09568l-0.11264-4.66944-0.33792-8.86784c-0.512-9.8304-1.28-18.432-2.3552-26.10176a126.54592 126.54592 0 0 0-14.336-45.34272 112.96768 112.96768 0 0 0-47.104-47.104 143.872 143.872 0 0 0-61.89056-16.1792l-8.192-0.512c-1.42336-0.07168-2.8672-0.1536-4.34176-0.2048l-9.216-0.28672c-3.1744-0.06144-6.46144-0.11264-9.87136-0.12288h-72.16128c-5.3248 0-10.3424 0-15.09376 0.1536l-9.216 0.28672c-1.47456 0-2.9184 0.12288-4.34176 0.19456l-8.192 0.512a144.22016 144.22016 0 0 0-61.89056 16.18944 112.96768 112.96768 0 0 0-47.104 47.104 143.872 143.872 0 0 0-16.1792 61.89056l-0.512 8.192c-0.07168 1.42336-0.1536 2.8672-0.2048 4.34176l-0.29696 9.216c-0.06144 3.1744-0.11264 6.46144-0.12288 9.87136v97.536c0 5.3248 0 10.3424 0.1536 15.09376l0.29696 9.216c0 1.47456 0.12288 2.9184 0.19456 4.34176l0.512 8.192a144.22016 144.22016 0 0 0 16.18944 61.89056 112.96768 112.96768 0 0 0 47.104 47.104 126.76096 126.76096 0 0 0 45.6192 14.39744c7.60832 1.024 16.19968 1.8432 25.97888 2.32448l6.7072 0.27648a25.37472 25.37472 0 1 1-1.75104 50.72896l-7.51616-0.39936q-15.36-0.68608-30.52544-2.75456a176.87552 176.87552 0 0 1-62.464-19.9168 163.70688 163.70688 0 0 1-67.96288-67.95264c-16.384-30.63808-22.89664-61.37856-23.30624-116.81792V447.8976c0-59.136 6.37952-90.9312 23.3472-122.63424a163.70688 163.70688 0 0 1 67.95264-67.96288c30.63808-16.384 61.37856-22.89664 116.81792-23.30624h5.82656z m120.43264 317.184h-3.29728a108.544 108.544 0 0 0-52.11136 11.3152 71.9872 71.9872 0 0 0-30.08512 30.08512 108.46208 108.46208 0 0 0-11.3152 52.11136v3.29728a108.544 108.544 0 0 0 11.3152 52.11136 71.9872 71.9872 0 0 0 30.08512 30.08512 108.46208 108.46208 0 0 0 52.11136 11.3152h3.29728a108.544 108.544 0 0 0 52.11136-11.3152 71.9872 71.9872 0 0 0 30.08512-30.08512 108.46208 108.46208 0 0 0 11.3152-52.11136v-3.29728a108.544 108.544 0 0 0-11.3152-52.11136 71.9872 71.9872 0 0 0-30.08512-30.08512 108.46208 108.46208 0 0 0-52.11136-11.3152z m-1.64864 28.54912a25.37472 25.37472 0 0 1 25.31328 23.47008l0.06144 1.90464v30.72l24.27904 24.29952a25.37472 25.37472 0 0 1 1.4848 34.27328l-1.4848 1.60768a25.37472 25.37472 0 0 1-34.27328 1.4848l-1.60768-1.4848-31.744-31.744a25.37472 25.37472 0 0 1-7.33184-15.70816l-0.1024-2.23232v-41.23648a25.37472 25.37472 0 0 1 25.40544-25.35424z m-190.3104-60.2624a25.37472 25.37472 0 0 1 1.90464 50.688l-1.90464 0.06144h-25.37472a25.37472 25.37472 0 0 1-1.90464-50.688l1.90464-0.06144z m50.74944-101.49888a25.37472 25.37472 0 0 1 1.90464 50.688l-1.90464 0.06144h-76.12416a25.37472 25.37472 0 0 1-1.90464-50.688l1.90464-0.06144h76.12416z" fill="#FA7301" p-id="6970"></path></svg>