<?xml version="1.0" standalone="no"?><!DOCTYPE svg PUBLIC "-//W3C//DTD SVG 1.1//EN" "http://www.w3.org/Graphics/SVG/1.1/DTD/svg11.dtd"><svg t="1783929220198" class="icon" viewBox="0 0 1024 1024" version="1.1" xmlns="http://www.w3.org/2000/svg" p-id="8025" xmlns:xlink="http://www.w3.org/1999/xlink" width="200" height="200"><path d="M674.909091 709.818182v-93.090909a23.272727 23.272727 0 0 1 46.545454 0v93.090909a23.272727 23.272727 0 0 1-46.545454 0z m23.272727 46.545454a23.272727 23.272727 0 1 1-23.272727 23.272728 23.272727 23.272727 0 0 1 23.272727-23.272728z m0 127.953455a186.181818 186.181818 0 1 1 186.181818-186.181818 186.181818 186.181818 0 0 1-186.181818 186.181818z m0-46.545455a139.636364 139.636364 0 1 0 0-279.272727 139.636364 139.636364 0 0 0 0 279.272727z m-325.864727 46.545455L209.454545 884.363636a69.818182 69.818182 0 0 1-69.818181-69.818181V209.454545a69.818182 69.818182 0 0 1 69.818181-69.818181h512a69.818182 69.818182 0 0 1 69.818182 69.818181v162.909091a23.272727 23.272727 0 0 1-46.545454 0V209.454545a23.272727 23.272727 0 0 0-23.272728-23.272727H209.454545a23.272727 23.272727 0 0 0-23.272727 23.272727v604.951273a23.272727 23.272727 0 0 0 23.272727 23.272727h162.862546a23.319273 23.319273 0 1 1 0 46.638546z m279.342545-511.860364H279.342545a23.319273 23.319273 0 0 1 0-46.638545L651.636364 325.911273a23.272727 23.272727 0 0 1 0 46.545454z m-186.181818 162.909091h-186.135273a23.319273 23.319273 0 0 1 0-46.638545l186.135273 0.069818a23.272727 23.272727 0 0 1 0 46.545454z m-93.090909 162.909091h-93.044364a23.319273 23.319273 0 0 1 0-46.638545l93.044364 0.069818a23.272727 23.272727 0 0 1 0 46.545454z" fill="#F76260" p-id="8026"></path></svg>